<svg viewBox="0 0 233 42" xmlns="http://www.w3.org/2000/svg" data-logo="logo">
        <g transform="translate(0, 1) rotate(0)" id="logogram" style="opacity: 1;"><path fill="#F1F5F9" d="M43 0C50.1797 6.44277e-07 56 5.8203 56 13C56 20.1797 50.1797 26 43 26H34.4844L48.4844 40H31.5156L15.7578 24.2422C14.672 23.1564 14 21.6569 14 20C14 16.6863 16.6863 14 20 14H43C43.5523 14 44 13.5523 44 13C44 12.4477 43.5523 12 43 12H20C15.5817 12 12 15.5817 12 20C12 22.3901 13.0482 24.5347 14.71 26H14.6875L28.6875 40H20C8.95431 40 0 31.0457 0 20C0 8.95431 8.9543 0 20 0H43Z"></path><path fill="#F1F5F9" d="M56 28V40H51.3125L39.3125 28H56Z"></path></g>
        <g transform="translate(62, 8)" id="logotype" style="opacity: 1;"><path d="M9.32 0.24L17.13 0.24Q19.55 0.24 21.44 0.85Q23.33 1.46 24.60 2.60Q25.88 3.74 26.55 5.33Q27.21 6.92 27.21 8.92L27.21 8.92Q27.21 10.49 26.74 12.07Q26.27 13.64 25.20 14.94Q24.13 16.23 22.38 17.02Q20.63 17.81 18.04 17.81L18.04 17.81L14.40 17.81L14.40 26L9.32 26L9.32 0.24ZM14.40 12.91L18.01 12.91Q19.16 12.91 19.93 12.52Q20.70 12.14 21.14 11.54Q21.58 10.95 21.77 10.30Q21.96 9.65 21.96 9.09L21.96 9.09Q21.96 8.67 21.84 8.03Q21.72 7.38 21.33 6.71Q20.95 6.05 20.16 5.59Q19.37 5.14 18.04 5.14L18.04 5.14L14.40 5.14L14.40 12.91ZM16.71 16.20L22.77 16.06L29.14 26L23.22 26L16.71 16.20ZM37.82 26.42L37.82 26.42Q35.02 26.42 33.07 25.37Q31.13 24.32 30.12 22.46Q29.10 20.61 29.10 18.20L29.10 18.20Q29.10 15.88 30.29 14.03Q31.48 12.17 33.48 11.07Q35.47 9.97 37.92 9.97L37.92 9.97Q41.21 9.97 43.33 11.88Q45.45 13.78 46.08 17.39L46.08 17.39L34.18 21.17L33.09 18.51L41.70 15.60L40.69 16.06Q40.41 15.15 39.69 14.47Q38.97 13.78 37.54 13.78L37.54 13.78Q36.45 13.78 35.63 14.29Q34.81 14.80 34.37 15.73Q33.93 16.66 33.93 17.91L33.93 17.91Q33.93 19.35 34.46 20.31Q34.98 21.27 35.89 21.77Q36.80 22.25 37.92 22.25L37.92 22.25Q38.73 22.25 39.48 21.98Q40.23 21.70 40.97 21.24L40.97 21.24L43.14 24.88Q41.91 25.58 40.49 26Q39.08 26.42 37.82 26.42ZM53.08 26.32L53.08 26.32Q51.19 26.32 49.56 25.65Q47.93 24.98 46.81 23.80L46.81 23.80L48.84 21.10Q49.96 22.11 50.92 22.55Q51.89 22.99 52.66 22.99L52.66 22.99Q53.25 22.99 53.72 22.87Q54.20 22.75 54.48 22.48Q54.76 22.22 54.76 21.80L54.76 21.80Q54.76 21.20 54.28 20.86Q53.81 20.50 53.08 20.28Q52.34 20.05 51.50 19.80L51.50 19.80Q49.40 19.14 48.47 17.86Q47.55 16.59 47.55 15.08L47.55 15.08Q47.55 13.92 48.16 12.75Q48.77 11.58 50.12 10.79Q51.47 10.00 53.60 10.00L53.60 10.00Q55.53 10.00 56.86 10.39Q58.19 10.77 59.38 11.65L59.38 11.65L57.52 14.52Q56.86 13.99 56.03 13.63Q55.21 13.26 54.51 13.22L54.51 13.22Q53.88 13.19 53.44 13.36Q53.01 13.54 52.76 13.82Q52.52 14.10 52.52 14.41L52.52 14.41Q52.48 15.08 53.02 15.46Q53.56 15.85 54.41 16.06Q55.25 16.27 56.05 16.55L56.05 16.55Q57.17 16.90 57.98 17.49Q58.78 18.09 59.22 18.91Q59.66 19.73 59.66 20.89L59.66 20.89Q59.66 22.29 58.94 23.53Q58.22 24.77 56.77 25.55Q55.31 26.32 53.08 26.32ZM61.02 18.16L61.02 18.16Q61.02 15.81 62.12 13.96Q63.23 12.10 65.22 11.04Q67.22 9.97 69.81 9.97L69.81 9.97Q72.43 9.97 74.36 11.04Q76.28 12.10 77.31 13.96Q78.34 15.81 78.34 18.16L78.34 18.16Q78.34 20.50 77.31 22.38Q76.28 24.25 74.36 25.34Q72.43 26.42 69.74 26.42L69.74 26.42Q67.22 26.42 65.24 25.44Q63.26 24.46 62.14 22.61Q61.02 20.75 61.02 18.16ZM65.96 18.20L65.96 18.20Q65.96 19.38 66.45 20.35Q66.94 21.31 67.78 21.87Q68.62 22.43 69.67 22.43L69.67 22.43Q70.82 22.43 71.66 21.87Q72.50 21.31 72.96 20.35Q73.41 19.38 73.41 18.20L73.41 18.20Q73.41 16.97 72.96 16.02Q72.50 15.08 71.66 14.52Q70.82 13.96 69.67 13.96L69.67 13.96Q68.62 13.96 67.78 14.52Q66.94 15.08 66.45 16.02Q65.96 16.97 65.96 18.20ZM80.66 10.70L85.10 10.70L85.48 13.43L85.42 13.19Q86.22 11.75 87.69 10.86Q89.16 9.97 91.30 9.97L91.30 9.97Q93.47 9.97 94.92 11.25Q96.37 12.52 96.41 14.55L96.41 14.55L96.41 26L91.51 26L91.51 16.38Q91.47 15.36 90.96 14.75Q90.46 14.13 89.27 14.13L89.27 14.13Q88.15 14.13 87.31 14.87Q86.47 15.60 86.01 16.86Q85.56 18.13 85.56 19.77L85.56 19.77L85.56 26L80.66 26L80.66 10.70ZM106.34 26.42L106.34 26.42Q104.21 26.42 102.48 25.56Q100.75 24.70 99.73 22.92Q98.72 21.13 98.72 18.37L98.72 18.37Q98.72 15.78 99.77 13.89Q100.82 12.00 102.53 10.97Q104.25 9.93 106.17 9.93L106.17 9.93Q108.45 9.93 109.62 10.69Q110.79 11.44 111.56 12.35L111.56 12.35L111.35 12.94L111.81 10.70L116.36 10.70L116.36 26L111.46 26L111.46 22.68L111.84 23.73Q111.77 23.73 111.42 24.13Q111.07 24.53 110.39 25.07Q109.71 25.61 108.71 26.02Q107.71 26.42 106.34 26.42ZM107.75 22.43L107.75 22.43Q108.62 22.43 109.32 22.17Q110.02 21.91 110.55 21.40Q111.07 20.89 111.46 20.12L111.46 20.12L111.46 16.38Q111.18 15.60 110.62 15.06Q110.06 14.52 109.29 14.22Q108.52 13.92 107.57 13.92L107.57 13.92Q106.52 13.92 105.63 14.47Q104.73 15.01 104.21 15.95Q103.69 16.90 103.69 18.13L103.69 18.13Q103.69 19.35 104.25 20.33Q104.81 21.31 105.73 21.87Q106.66 22.43 107.75 22.43ZM119.85 10.70L124.30 10.70L124.68 13.43L124.61 13.19Q125.42 11.75 126.89 10.86Q128.36 9.97 130.50 9.97L130.50 9.97Q132.66 9.97 134.12 11.25Q135.57 12.52 135.60 14.55L135.60 14.55L135.60 26L130.70 26L130.70 16.38Q130.67 15.36 130.16 14.75Q129.66 14.13 128.47 14.13L128.47 14.13Q127.34 14.13 126.50 14.87Q125.66 15.60 125.21 16.86Q124.75 18.13 124.75 19.77L124.75 19.77L124.75 26L119.85 26L119.85 10.70ZM149.64 21.55L152.09 24.63Q151.08 25.44 149.55 25.93Q148.03 26.42 146.56 26.42L146.56 26.42Q143.94 26.42 141.99 25.46Q140.05 24.50 138.98 22.69Q137.92 20.89 137.92 18.34L137.92 18.34Q137.92 15.78 139.07 13.98Q140.23 12.17 142.10 11.23Q143.97 10.28 146.03 10.28L146.03 10.28Q148.10 10.28 149.62 10.84Q151.15 11.40 152.23 12.31L152.23 12.31L149.85 15.46Q149.36 15.08 148.50 14.68Q147.65 14.27 146.49 14.27L146.49 14.27Q145.48 14.27 144.64 14.80Q143.80 15.32 143.31 16.23Q142.81 17.14 142.81 18.34L142.81 18.34Q142.81 19.45 143.34 20.40Q143.87 21.34 144.79 21.89Q145.72 22.43 146.98 22.43L146.98 22.43Q147.78 22.43 148.47 22.20Q149.15 21.98 149.64 21.55L149.64 21.55ZM161.86 26.42L161.86 26.42Q159.06 26.42 157.11 25.37Q155.17 24.32 154.16 22.46Q153.14 20.61 153.14 18.20L153.14 18.20Q153.14 15.88 154.33 14.03Q155.52 12.17 157.52 11.07Q159.51 9.97 161.96 9.97L161.96 9.97Q165.25 9.97 167.37 11.88Q169.49 13.78 170.12 17.39L170.12 17.39L158.22 21.17L157.13 18.51L165.74 15.60L164.73 16.06Q164.45 15.15 163.73 14.47Q163.01 13.78 161.58 13.78L161.58 13.78Q160.49 13.78 159.67 14.29Q158.85 14.80 158.41 15.73Q157.97 16.66 157.97 17.91L157.97 17.91Q157.97 19.35 158.50 20.31Q159.02 21.27 159.93 21.77Q160.84 22.25 161.96 22.25L161.96 22.25Q162.77 22.25 163.52 21.98Q164.27 21.70 165.01 21.24L165.01 21.24L167.18 24.88Q165.95 25.58 164.53 26Q163.12 26.42 161.86 26.42Z" fill="#ffffff"></path></g>
        
      </svg>